<?xml version="1.0" encoding="UTF-8"?>
<svg width="21px" height="21px" viewBox="0 0 21 21" version="1.1" xmlns="http://www.w3.org/2000/svg" xmlns:xlink="http://www.w3.org/1999/xlink">
    <title>radar</title>
    <defs>
        <path d="M0,0 L21,0 L21,21 L0,21 L0,0 Z" id="path-1"></path>
    </defs>
    <g id="radar" stroke="none" fill="none" xlink:href="#path-1">
        <use fill="#FFFFFF" fill-rule="evenodd" xlink:href="#path-1"></use>
        <path d="M12.4852072,20.6629591 C7.62107316,21.6303703 2.75093171,19.0270631 0.853174257,14.4451201 C-1.04458319,9.8631772 0.558597033,4.57873783 4.6822715,1.82356213 C8.80594597,-0.931613584 14.3014987,-0.390056899 17.8083266,3.11677103 C18.1773875,3.48583191 18.1773875,4.08419782 17.8083266,4.4532587 L12.2772724,9.9843129 C12.4986819,10.8106243 12.1374863,11.6826275 11.3966358,12.1103577 C10.6557853,12.538088 9.72001055,12.4148909 9.11510864,11.809989 C8.51020674,11.2050871 8.38700966,10.2693124 8.8147399,9.52846184 C9.24247014,8.78761134 10.1144734,8.42641577 10.9407847,8.64782523 L12.7156404,6.87296961 C11.0755906,5.84691244 8.94916154,6.06005813 7.54539074,7.39121704 C6.14161995,8.72237596 5.81594147,10.8344993 6.75352845,12.5266835 C7.69111543,14.2188676 9.65457131,15.0626524 11.5275212,14.5782815 C13.3817417,14.0987544 14.6824644,12.4377038 14.7079619,10.5274206 L14.7083435,10.4694579 C14.7077899,9.94557601 15.1320313,9.52043705 15.6559132,9.51988345 C16.1797951,9.51932986 16.6049341,9.94357128 16.6054877,10.4674532 C16.6123937,13.3117359 14.6672269,15.7893688 11.9025774,16.4577287 C9.13792791,17.1260886 6.27577448,15.8106357 4.98263065,13.2773037 C3.68948682,10.7439718 4.30305267,7.65433172 6.46607419,5.80735318 C8.62909571,3.96037463 11.7767072,3.8383897 14.0761848,5.51242517 L15.7668417,3.82176828 C12.6661495,1.34435773 8.26422237,1.34074446 5.15946729,3.81306134 C2.0547122,6.28537823 1.07255474,10.5763388 2.79275118,14.1530383 C4.51294761,17.7297377 8.4781691,19.6412801 12.3477909,18.759304 C16.2174127,17.8773278 18.962663,14.4363138 18.963052,10.4674532 C18.9571165,10.1259598 19.1359034,9.80783606 19.4306958,9.63535297 C19.7254881,9.46286989 20.0904093,9.46286989 20.3852017,9.63535297 C20.679994,9.80783606 20.8587809,10.1259598 20.8529888,10.4674532 C20.8527342,15.4268568 17.3493412,19.695548 12.4852072,20.6629591 Z" id="Path" fill="#000000" fill-rule="nonzero"></path>
    </g>
</svg>